PathFileType  4	(X/Y/Z) C:\Users\antoi\Documents\MyRepositories\mobilecap\ResultsAnalysis
DataRate	CameraRate	NumFrames	NumMarkers	Units	OrigDataRate	OrigDataStartFrame	OrigNumFrames
100.0	100.0	6	51	mm	100.0	181	289
Frame#	Time	r_knee			r_shank_antsup			r_ankle			r_calc			r_5meta			r_toe			L_knee			L_shank_antsup			L_ankle			L_calc			L_5meta			L_toe			r_sh2			r_sh3			r_sh4			L_sh2			L_sh3			r_thigh1			r_thigh2			r_thigh3			r_thigh4			r_thigh5			L_thigh1			L_thigh2			L_thigh3			L_thigh4			r.ASIS			r.PSIS			L.ASIS			L.PSIS			C7			R_Shoulder			L_Shoulder			R_Sternum			L_Sternum			R_humerus			R_elbow_med			R_elbow_lat			R_forearm			R_wrist_radius			R_wrist_ulna			L_humerus			L_elbow_med			L_elbow_lat			L_forearm			L_wrist_radius			L_wrist_ulna			R_HJC			L_HJC			R_HJC_reg			L_HJC_reg			
		X1	Y1	Z1	X2	Y2	Z2	X3	Y3	Z3	X4	Y4	Z4	X5	Y5	Z5	X6	Y6	Z6	X7	Y7	Z7	X8	Y8	Z8	X9	Y9	Z9	X10	Y10	Z10	X11	Y11	Z11	X12	Y12	Z12	X13	Y13	Z13	X14	Y14	Z14	X15	Y15	Z15	X16	Y16	Z16	X17	Y17	Z17	X18	Y18	Z18	X19	Y19	Z19	X20	Y20	Z20	X21	Y21	Z21	X22	Y22	Z22	X23	Y23	Z23	X24	Y24	Z24	X25	Y25	Z25	X26	Y26	Z26	X27	Y27	Z27	X28	Y28	Z28	X29	Y29	Z29	X30	Y30	Z30	X31	Y31	Z31	X32	Y32	Z32	X33	Y33	Z33	X34	Y34	Z34	X35	Y35	Z35	X36	Y36	Z36	X37	Y37	Z37	X38	Y38	Z38	X39	Y39	Z39	X40	Y40	Z40	X41	Y41	Z41	X42	Y42	Z42	X43	Y43	Z43	X44	Y44	Z44	X45	Y45	Z45	X46	Y46	Z46	X47	Y47	Z47	X48	Y48	Z48	X49	Y49	Z49	X50	Y50	Z50	X51	Y51	Z51	

181	1.80000000	-122.03570	488.08051	-416.45239	-107.58407	409.55664	-396.42192	-298.72745	105.00283	-416.08178	-369.16347	56.21900	-466.88061	-176.24171	38.01407	-371.42462	-134.89114	58.53970	-429.28186	-142.31988	490.01850	-765.48584	-141.24730	378.48163	-782.73579	-312.51868	103.79545	-737.89336	-384.06224	56.78268	-687.07921	-181.93981	33.19324	-798.52852	-145.57847	57.01179	-738.88049	-155.97175	306.65236	-392.23053	-175.35375	441.08287	-383.13018	-231.91253	341.38061	-380.02617	-220.54859	421.39361	-783.49059	-265.61875	310.67684	-776.93069	-297.21115	743.62576	-370.07227	-209.37579	682.09979	-385.75746	-218.72846	619.02589	-361.23598	-361.63674	650.31617	-371.01948	-262.04758	587.57765	-373.41184	-327.38114	749.56023	-755.81271	-214.91247	669.87643	-768.59641	-395.43875	653.08467	-749.10996	-278.92243	580.31251	-772.92104	-336.46022	835.13195	-427.99101	-513.27085	916.28605	-500.08670	-351.28120	825.12507	-688.17043	-519.66028	911.74523	-603.68586	-264.07826	1372.17421	-592.54391	-213.51011	1338.96007	-436.07537	-216.79566	1321.64961	-730.54927	-152.47027	1244.13009	-553.67988	-156.28852	1240.43104	-610.30710	-155.89134	1145.97444	-269.44078	-161.99251	1011.67682	-289.73533	-129.65327	1071.33044	-224.65230	-11.46357	1122.47148	-318.56551	58.65509	1151.98665	-402.58513	82.32017	1131.93434	-368.61572	-170.71500	1109.31576	-868.86431	-186.20713	975.33760	-852.67464	-153.97153	1026.69900	-906.70314	11.13660	1052.23016	-852.22638	88.80239	1077.83040	-797.63245	101.52213	1048.45271	-820.66087	-435.71316	778.45227	-428.11181	-446.43114	769.20710	-658.04450	-427.40644	779.01605	-457.05925	-437.99195	771.49404	-628.69199	
182	1.81000000	-124.59851	489.61551	-415.95306	-109.88042	410.68497	-396.29871	-298.97356	105.27827	-415.74995	-369.24397	56.20942	-466.85374	-176.26226	38.00937	-371.35083	-135.01186	58.61215	-429.31391	-144.88348	491.24751	-765.03789	-143.41195	379.92076	-782.73544	-312.83878	103.86155	-737.73878	-384.05643	56.75203	-687.10063	-181.94268	33.20028	-798.51039	-145.59731	57.08039	-738.80520	-157.29247	307.66945	-391.31232	-177.17148	442.59659	-382.20691	-233.79645	342.03493	-379.59411	-222.94120	422.56746	-782.80275	-267.51036	310.74657	-776.01704	-299.86627	744.83510	-370.35083	-212.01795	683.91295	-385.48673	-221.38269	620.40240	-360.91165	-364.23231	651.58821	-370.94233	-264.54424	588.89555	-373.19828	-330.21840	750.53971	-756.18600	-217.66684	670.89655	-768.52352	-398.24079	654.03917	-749.39890	-281.62479	581.32632	-772.99007	-337.54222	834.49362	-428.61768	-513.26786	918.12070	-500.48219	-352.68476	825.00894	-689.09847	-519.90303	913.86729	-603.84874	-257.07314	1369.96615	-591.63759	-207.45981	1336.96401	-435.85318	-210.84403	1319.70101	-729.67251	-146.44641	1240.85157	-553.52751	-150.79191	1237.38058	-609.58382	-149.88024	1145.16556	-268.05658	-154.19390	1010.25479	-290.34187	-123.06010	1069.64292	-224.38053	-6.29108	1124.84552	-317.58935	62.78352	1157.62270	-400.76892	87.06145	1136.96616	-367.64409	-166.56951	1109.87297	-871.83977	-180.11099	975.46814	-854.39868	-150.00752	1027.58184	-910.84105	13.69172	1057.51635	-856.15314	90.40132	1087.39867	-802.63025	104.07961	1058.73613	-825.81455	-437.49271	779.13000	-428.78456	-448.64869	770.40779	-658.71684	-429.19007	779.53081	-457.66185	-440.21958	772.46003	-629.48439	
183	1.82000000	-127.12135	491.13761	-415.14635	-111.67887	411.91349	-395.81123	-299.23617	105.48531	-415.55900	-369.31061	56.20580	-466.83784	-176.26520	38.03087	-371.22619	-135.14252	58.63616	-429.34483	-147.08993	492.26058	-764.42021	-145.36218	381.00903	-782.32480	-313.13666	103.78533	-737.50715	-384.19971	56.63971	-687.13378	-181.95206	33.20540	-798.47457	-145.62204	57.12663	-738.76069	-158.38390	308.58230	-390.40265	-178.92495	443.84517	-381.46979	-235.54735	342.56211	-379.29370	-225.03207	423.37568	-781.85637	-269.32215	311.12008	-775.19965	-302.21710	745.97808	-370.64934	-214.31553	685.12117	-385.44210	-223.70877	621.51156	-360.84903	-366.51771	652.60703	-370.91106	-266.72804	590.07723	-373.12783	-332.59514	751.56968	-756.43191	-219.98010	671.90834	-768.25000	-400.78706	654.96734	-749.80185	-283.96308	582.35705	-773.09183	-338.57707	833.61563	-429.35730	-513.13110	919.77600	-500.79909	-354.03714	824.62936	-690.10920	-519.95627	915.61886	-604.08612	-250.16696	1367.47622	-590.76570	-201.31767	1334.41219	-435.43339	-205.17977	1316.99751	-728.79619	-141.11389	1236.84922	-553.17447	-146.00375	1233.46953	-608.72328	-144.76849	1143.27305	-266.85446	-148.82811	1006.97314	-289.09754	-117.78151	1066.72614	-224.17145	-2.23813	1125.88109	-316.09772	66.21493	1161.49255	-398.38362	90.89419	1140.53314	-365.81789	-163.32471	1109.87639	-875.00672	-175.05870	975.14176	-855.94521	-147.52099	1027.67671	-914.91411	14.83287	1061.57513	-860.26140	90.49369	1094.43898	-807.47183	104.96581	1066.49607	-830.86311	-439.14892	779.58308	-429.48369	-450.79463	771.34787	-659.40960	-431.00144	780.05858	-458.33227	-442.36619	773.13603	-630.31893	
184	1.83000000	-129.40896	492.44066	-414.29285	-113.17830	413.12016	-395.26710	-299.52740	105.60853	-415.47854	-369.38017	56.18593	-466.83982	-176.28504	38.03301	-371.09641	-135.25307	58.63118	-429.35132	-148.90462	493.05089	-763.70175	-147.06134	381.83619	-781.85671	-313.51592	103.63148	-737.30317	-384.41689	56.47182	-687.18205	-181.99065	33.18462	-798.40402	-145.67779	57.16516	-738.72390	-159.42704	309.49408	-389.77784	-180.73532	444.48760	-381.20471	-236.82939	343.04188	-379.24432	-226.80557	423.88734	-780.99804	-271.01950	311.96070	-774.62906	-304.41273	746.96541	-370.83235	-216.40949	685.96998	-385.68898	-225.76767	622.53515	-360.79528	-368.59728	653.39483	-370.95322	-268.70473	591.05452	-373.10651	-334.57392	752.45765	-756.27344	-221.96584	672.87621	-767.87632	-402.95245	655.90830	-750.47905	-286.00668	583.37550	-773.24906	-339.46924	832.56462	-430.00567	-512.88273	921.13574	-501.01016	-355.26850	823.96571	-691.00548	-519.78601	916.89973	-604.53093	-243.37402	1364.62887	-589.99728	-195.22012	1331.20970	-434.94372	-200.12336	1313.23768	-727.60793	-137.22576	1231.73577	-552.25306	-142.55702	1228.26565	-607.76366	-140.52321	1140.34766	-265.58758	-145.37001	1002.23933	-287.27327	-113.81792	1062.59040	-223.89600	1.28529	1125.26267	-314.12133	69.00520	1163.55313	-395.56573	93.84424	1142.35192	-363.30236	-161.07524	1109.20256	-878.15220	-172.27775	973.90993	-859.06416	-146.51976	1026.95673	-918.92203	14.76643	1064.61172	-864.94264	89.33411	1099.11627	-812.15162	104.40793	1071.69672	-835.70784	-440.63141	779.82578	-430.09454	-452.69515	771.92131	-660.01067	-432.75035	780.47987	-458.93697	-444.22977	773.43655	-631.07932	
185	1.84000000	-131.14391	493.23784	-414.15010	-114.54056	414.05266	-395.05080	-299.78823	105.66399	-415.39185	-369.44788	56.16085	-466.84322	-176.34492	37.97018	-371.07099	-135.32900	58.62747	-429.34678	-150.33647	493.69822	-763.16649	-148.39930	382.55062	-781.60007	-313.92798	103.54280	-737.28934	-384.60068	56.29616	-687.18740	-182.04670	33.13696	-798.32614	-145.75378	57.22120	-738.66806	-160.44524	310.34607	-389.50043	-182.62821	444.77260	-381.30972	-237.58991	343.66309	-379.10199	-228.22487	424.42432	-780.62808	-272.54771	312.75499	-774.18736	-306.45017	747.62491	-370.94401	-218.45605	686.71456	-385.86006	-227.71912	623.69595	-360.56757	-370.58715	653.98359	-370.96309	-270.54584	591.79915	-373.05766	-336.19018	753.20504	-756.16234	-223.53076	673.61340	-767.35569	-404.65039	656.70112	-751.37510	-287.62302	584.21354	-773.37477	-340.16562	831.27176	-430.55900	-512.56366	922.09693	-501.22832	-356.23780	822.95527	-691.63777	-519.46190	917.71963	-604.96234	-236.70570	1361.38405	-589.15636	-189.28973	1327.40934	-434.48180	-195.53715	1308.80707	-726.27687	-134.12072	1226.06891	-550.80178	-140.04497	1222.21784	-606.86378	-137.19798	1136.43937	-264.24937	-142.44514	997.47290	-287.56562	-111.19044	1057.31096	-223.65208	4.36414	1122.88171	-311.80489	71.20280	1163.73726	-392.41413	96.07908	1142.11548	-360.30430	-159.97353	1107.71254	-881.23828	-172.12788	971.63807	-863.52756	-147.03676	1025.42796	-922.98141	13.41051	1065.84800	-869.50331	87.06698	1101.49723	-816.64770	102.56217	1074.38268	-840.31895	-441.91863	779.77781	-430.56843	-454.28040	772.07871	-660.47578	-434.27297	780.63416	-459.46106	-445.72349	773.36803	-631.65315	
186	1.85000000	-132.39637	493.56697	-414.70316	-115.69560	414.70966	-394.93833	-300.01872	105.63925	-415.33596	-369.49885	56.12752	-466.85530	-176.41579	37.91136	-371.18011	-135.40634	58.65068	-429.37121	-151.34531	494.20422	-762.88904	-149.31774	383.12424	-781.52549	-314.22848	103.53709	-737.48280	-384.76105	56.12934	-687.12243	-182.08638	33.09123	-798.29383	-145.82265	57.30951	-738.61452	-161.38839	310.92752	-389.52559	-184.37603	444.90155	-381.60847	-238.29594	344.24234	-378.78690	-229.25935	424.90519	-780.53177	-273.66712	313.09866	-774.05636	-308.35985	747.94800	-371.00191	-220.45117	687.28954	-385.70872	-229.52638	624.50006	-360.39248	-372.47744	654.24080	-370.84098	-272.19632	592.30872	-372.98808	-337.42504	753.64205	-756.01465	-224.38118	673.96576	-766.74824	-405.88271	657.11770	-752.17540	-288.64896	584.68563	-773.43134	-340.68767	829.65910	-431.09576	-512.18857	922.61247	-501.51459	-356.85285	821.61236	-692.29495	-519.04795	918.11772	-605.20715	-230.28695	1357.74862	-588.18365	-183.57994	1323.12270	-434.00600	-190.92063	1304.42899	-725.31690	-130.35436	1220.90439	-549.68534	-137.29869	1216.29995	-606.13323	-134.86526	1131.44591	-262.98846	-139.95805	992.68378	-289.52910	-109.78243	1051.01386	-223.66780	6.49696	1118.91111	-309.35032	72.91085	1162.04810	-388.80930	97.71777	1139.73046	-356.95284	-160.15123	1105.38593	-884.35559	-173.77738	968.59160	-867.73233	-149.07602	1022.95518	-926.78556	10.74357	1064.98911	-873.59272	83.80532	1101.54504	-821.06922	99.59181	1074.60404	-844.76562	-442.97644	779.32113	-431.03790	-455.56723	771.87306	-660.94085	-435.52093	780.37964	-460.00001	-446.91656	772.91194	-632.26530	
